<svg preserveAspectRatio="xMidYMid meet" width="100%" height="100%" overflow="visible" style="display: block;" viewBox="0 0 175 29" fill="none" xmlns="http://www.w3.org/2000/svg">
<g id="g5150 2 9 4 0 6 9 5 9 6 9 8 4">
<path id="path4237 8 4 2 1 2 7 9 8 0 7 9 7 9" d="M9.02619 8.40697C7.9488 8.39888 6.79354 8.52305 5.77366 8.91765C5.77366 8.91765 0.56736 10.9335 0.0915249 16.617C0.0915249 16.617 -0.552264 21.3206 1.57504 24.3724C1.57504 24.3724 3.21721 27.1239 6.70068 27.9158C6.70068 27.9158 13.8655 29.9745 17.6261 23.4809C17.6261 23.4809 17.9491 22.9019 17.5432 22.426L15.332 21.0821C15.332 21.0821 14.7173 20.8161 14.2414 21.502C14.2414 21.502 13.2318 23.3816 11.5297 23.9558C11.5297 23.9558 9.13454 24.8268 7.15528 23.9558C7.15528 23.9558 4.50366 23.0847 4.11772 18.7986H17.4872C17.4872 18.7986 18.1508 18.8483 18.2497 18.0762C18.2497 18.0762 18.7054 10.9615 12.8553 8.91765C12.8553 8.91765 11.083 8.42242 9.02619 8.40697V8.40697ZM9.32961 12.0019C10.8928 11.9849 11.9036 12.5293 11.9036 12.5293C14.1429 13.5932 14.0869 16.029 14.0869 16.029H4.37412C5.12988 13.2013 6.69735 12.5573 6.69735 12.5573C7.67088 12.1531 8.56615 12.0102 9.32961 12.0019Z" fill="var(--fill-0, #0A9C9A)"/>
<path id="path4241 8 5 7 1 4 6 5 7 2 9 5 1 8" d="M34.9253 0C34.9253 0 34.408 0.0279977 34.296 0.699942V11.9785C34.296 11.9785 33.3801 9.66233 31.104 8.85064C31.104 8.85064 28.1553 7.84132 25.5428 8.87078C25.5428 8.87078 22.2964 9.78177 20.7922 14.9687C20.7922 14.9687 19.9804 17.5659 20.6936 21.4104C20.6936 21.4104 21.3067 25.2828 25.0277 27.4803C25.0277 27.4803 27.6803 29.0839 31.5597 27.4803C31.5597 27.4803 33.2487 26.8219 34.324 25.0725V26.6885C34.324 26.6885 34.2908 27.3018 34.9241 27.4008H37.6952C37.6952 27.4008 38.3286 27.3023 38.3088 26.6291V0.727939C38.3088 0.727939 38.312 0.153988 37.6124 0H34.9253ZM29.4536 12.0883C32.2671 12.0883 34.5479 14.9144 34.5479 18.4012C34.5479 21.888 32.2671 24.7152 29.4536 24.7152C26.6401 24.7152 24.3593 21.888 24.3593 18.4012C24.3593 14.9144 26.6401 12.0883 29.4536 12.0883Z" fill="var(--fill-0, #0A9C9A)"/>
<path id="path4245 2 5 9 3 8 7 3 5 5 2 0 8 8" d="M42.0295 9.02877H44.5827C44.5827 9.02877 45.2359 8.94958 45.3151 9.78107L45.3381 20.5223C45.3381 20.5223 45.3941 23.574 47.9693 24.2459C47.9693 24.2459 49.9286 24.7359 51.6361 24.2459C51.6361 24.2459 54.2812 23.658 54.2952 20.4943V9.79914C54.2952 9.79914 54.2112 9.05721 54.9669 9.02921H57.5561C57.5561 9.02921 58.3258 8.95921 58.3539 9.68715V19.2764C58.3539 19.2764 58.3679 25.0719 54.897 27.0037C54.897 27.0037 50.3065 29.6635 44.6524 27.0037C44.6524 27.0037 41.8253 25.8558 41.3495 20.1443V9.70115C41.3495 9.70115 41.3566 9.04856 42.0295 9.02877V9.02877Z" fill="var(--fill-0, #0A9C9A)"/>
<path id="path4247 45 1 5 8 6 7 0 0 9 9 6 71 0" d="M74.9672 12.6272V9.88339C74.9672 9.88339 75.0092 9.49142 74.3934 9.21144C74.3934 9.21144 70.1389 7.16761 65.3524 9.51942C65.3524 9.51942 61.9614 11.0088 60.9123 15.1464C60.9123 15.1464 60.0411 18.7727 60.9123 21.4044C60.9123 21.4044 61.8956 25.7721 65.8423 27.3399C65.8423 27.3399 69.3951 29.2382 74.4634 27.2C74.4634 27.2 74.9795 27.0703 74.9672 26.472V23.7979C74.9672 23.7979 74.7869 22.9664 74.0051 23.1643C74.0051 23.1643 73.7676 23.2336 73.4905 23.4316C73.4905 23.4316 72.5603 24.1047 71.4519 24.2631C71.4519 24.2631 69.1361 24.6887 67.5032 23.7286C67.5032 23.7286 65.1985 22.8603 64.6946 19.0526C64.6946 19.0526 64.5127 17.4708 64.6946 16.8128C64.6946 16.8128 65.2073 13.1073 68.5721 12.3352C68.5721 12.3352 70.2742 11.8798 72.3524 12.3946C72.3524 12.3946 73.3998 12.8231 73.7497 13.1171C73.7497 13.1171 74.5893 13.6351 74.9672 12.6272V12.6272Z" fill="var(--fill-0, #0A9C9A)"/>
<path id="path4241 1 5 7 4 7 5 1 9 7 8 2 5 54 9" d="M83.9959 8.46385C83.1517 8.45967 82.2136 8.57251 81.3155 8.92639C81.3155 8.92639 78.0703 9.83736 76.566 15.0243C76.566 15.0243 75.7531 17.6215 76.4664 21.466C76.4664 21.466 77.0806 25.3384 80.8016 27.5359C80.8016 27.5359 83.4531 29.1395 87.3323 27.5359C87.3323 27.5359 89.0215 26.8775 90.0967 25.1281V26.7441C90.0967 26.7441 90.0635 27.3585 90.6969 27.4575H93.4679C93.4679 27.4575 94.1013 27.3578 94.0815 26.6847V9.74391C94.0815 9.74391 94.086 9.16997 93.3862 9.01598H90.6991C90.6991 9.01598 90.1807 9.04396 90.0688 9.71591V12.0353C90.0688 12.0353 89.1539 9.71903 86.8778 8.90734C86.8778 8.90734 85.6074 8.47184 83.9959 8.46385V8.46385ZM85.2264 12.1439C88.0399 12.1439 90.3207 14.9711 90.3207 18.4579C90.3207 21.9447 88.0399 24.7708 85.2264 24.7708C82.4128 24.7708 80.132 21.9447 80.132 18.4579C80.132 14.9711 82.4128 12.1439 85.2264 12.1439Z" fill="var(--fill-0, #0A9C9A)"/>
<path id="path4247 4 1 1 3 4 0 9 9 4 4 3 6 84 7" d="M111.107 12.6158V9.87206C111.107 9.87206 111.149 9.48009 110.533 9.20012C110.533 9.20012 106.278 7.15629 101.492 9.50809C101.492 9.50809 98.101 10.9974 97.0519 15.1351C97.0519 15.1351 96.1807 18.7613 97.0519 21.3931C97.0519 21.3931 98.0352 25.7607 101.982 27.3286C101.982 27.3286 105.535 29.2268 110.603 27.1886C110.603 27.1886 111.119 27.0589 111.107 26.4607V23.7865C111.107 23.7865 110.927 22.955 110.145 23.153C110.145 23.153 109.907 23.2223 109.63 23.4203C109.63 23.4203 108.7 24.0934 107.591 24.2517C107.591 24.2517 105.276 24.6774 103.643 23.7172C103.643 23.7172 101.338 22.849 100.834 19.0413C100.834 19.0413 100.652 17.4594 100.834 16.8015C100.834 16.8015 101.347 13.0959 104.712 12.3238C104.712 12.3238 106.414 11.8685 108.492 12.3832C108.492 12.3832 109.539 12.8118 109.889 13.1058C109.889 13.1058 110.729 13.6237 111.107 12.6158V12.6158Z" fill="var(--fill-0, #DF2B3C)"/>
<path id="path4288 7 1 1 2 9 1 5 5 6 1 1 5 9" fill-rule="evenodd" clip-rule="evenodd" d="M135.011 8.37951C129.625 8.37951 125.259 12.8473 125.259 18.3579C125.259 23.8685 129.625 28.3351 135.011 28.3351C140.397 28.3351 144.763 23.8685 144.763 18.3579C144.763 12.8473 140.397 8.37951 135.011 8.37951ZM135.011 12.1178C138.062 12.1178 140.536 14.9116 140.536 18.3579C140.536 21.8042 138.062 24.598 135.011 24.598C131.96 24.598 129.486 21.8042 129.486 18.3579C129.486 14.9116 131.96 12.1178 135.011 12.1178Z" fill="var(--fill-0, #DF2B3C)"/>
<path id="path4312 1 5 2 7 0 6 1 8 0 7 4 7 2" d="M113.846 10.5137V27.3124C113.846 27.3124 113.79 28.1383 114.685 28.1803H117.261C117.261 28.1803 117.89 28.1803 117.96 27.4383V18.9281C117.96 18.9281 117.894 14.3549 120.032 13.1077C120.032 13.1077 121.298 12.4148 123.337 13.0483C123.337 13.0483 124.01 13.3453 124.406 12.9097L125.356 10.6528C125.356 10.6528 125.574 9.80154 124.96 9.64315C124.96 9.64315 122.031 8.25732 119.695 10.0589C119.695 10.0589 118.528 10.8904 117.993 12.6326V10.4992C117.993 10.4992 118.017 9.74794 117.281 9.74214H114.549C114.549 9.74214 113.993 9.74116 113.846 10.5137V10.5137Z" fill="var(--fill-0, #DF2B3C)"/>
<path id="path4314 1 2 3 7 0 27 1 2 8 8 9 93 4" d="M155.287 12.7675C155.287 12.7675 155.65 13.2575 156.392 12.8795L158.016 11.6476C158.016 11.6476 158.45 11.2556 158.114 10.7237C158.114 10.7237 156.866 8.65325 153.937 8.41568C153.937 8.41568 151.839 8.2375 150.651 8.59385C150.651 8.59385 146.871 9.28676 146.178 12.7711C146.178 12.7711 145.941 13.7808 146.238 15.127C146.238 15.127 146.614 17.3047 149.582 18.6311C149.582 18.6311 153.397 20.3689 153.593 20.4529C153.593 20.4529 155.748 21.3208 155.329 23.0847C155.329 23.0847 155.189 24.5965 153.481 24.9325C153.481 24.9325 150.374 25.7164 148.919 23.2247C148.919 23.2247 148.553 22.4322 147.841 22.6104L145.763 23.7784C145.763 23.7784 145.169 24.1546 145.545 24.8178C145.545 24.8178 146.396 26.4511 148.058 27.3221C148.058 27.3221 150.572 28.9851 155.006 27.8567C155.006 27.8567 158.073 26.847 158.845 24.8277C158.845 24.8277 159.696 23.1647 159.162 20.7692C159.162 20.7692 158.647 18.7103 156.193 17.5027C156.193 17.5027 152.809 15.9981 152.353 15.8595C152.353 15.8595 150.097 14.9092 150.137 13.7214C150.137 13.7214 149.761 12.4147 151.324 11.7812C151.324 11.7812 152.532 11.1873 154.095 11.7812C154.095 11.7812 154.855 12.0908 155.287 12.7675V12.7675Z" fill="var(--fill-0, #DF2B3C)"/>
<path id="path4314 9 5 7 3 9 6 2 1 8 2 8 9 0 1" d="M170.323 12.9488C170.323 12.9488 170.687 13.4388 171.428 13.0608L173.052 11.8289C173.052 11.8289 173.486 11.4369 173.15 10.905C173.15 10.905 171.902 8.83452 168.973 8.59695C168.973 8.59695 166.875 8.41877 165.687 8.77512C165.687 8.77512 161.907 9.46804 161.214 12.9524C161.214 12.9524 160.977 13.962 161.274 15.3083C161.274 15.3083 161.65 17.486 164.619 18.8124C164.619 18.8124 168.433 20.5502 168.629 20.6342C168.629 20.6342 170.785 21.5021 170.365 23.266C170.365 23.266 170.225 24.7778 168.517 25.1138C168.517 25.1138 165.41 25.8977 163.955 23.4059C163.955 23.4059 163.589 22.6135 162.877 22.7917L160.799 23.9597C160.799 23.9597 160.205 24.3359 160.581 24.9991C160.581 24.9991 161.432 26.6323 163.094 27.5034C163.094 27.5034 165.608 29.1664 170.042 28.038C170.042 28.038 173.109 27.0283 173.881 25.009C173.881 25.009 174.732 23.346 174.198 20.9505C174.198 20.9505 173.683 18.8916 171.229 17.6839C171.229 17.6839 167.845 16.1793 167.389 16.0408C167.389 16.0408 165.133 15.0905 165.173 13.9026C165.173 13.9026 164.797 12.596 166.36 11.9625C166.36 11.9625 167.568 11.3686 169.131 11.9625C169.131 11.9625 169.891 12.2721 170.323 12.9488V12.9488Z" fill="var(--fill-0, #DF2B3C)"/>
</g>
</svg>
