<svg preserveAspectRatio="none" width="100%" height="100%" overflow="visible" style="display: block;" viewBox="0 0 51 33" fill="none" xmlns="http://www.w3.org/2000/svg">
<g id="Group 46">
<path id="Vector" d="M50.9015 15.6843C50.3767 14.2284 47.0969 13.5004 47.0969 13.5004C46.5066 12.971 47.1625 12.3754 47.1625 12.3754C47.4249 11.9783 47.9497 11.3827 47.9497 11.3827C47.0969 11.7798 46.113 11.7136 46.113 11.7136C45.8506 11.5151 46.2442 11.4489 46.2442 11.4489C48.6057 10.39 48.2777 7.67671 48.2777 7.67671C47.4905 8.33849 46.1786 8.13996 46.1786 8.13996C45.2603 8.0076 45.2603 7.21346 45.2603 7.21346C45.3914 6.28696 46.6378 5.95607 46.6378 5.95607C45.2603 4.03689 41.1933 4.6325 41.1933 4.6325C42.046 1.78682 40.7341 0.0661785 40.7341 0.0661785C36.208 4.50014 28.4021 4.83103 28.4021 4.83103C28.2053 4.83103 27.7461 4.43396 27.7461 4.43396C26.9589 3.57364 27.4181 1.78682 27.4181 1.78682C26.7622 2.18389 26.1718 3.83835 26.1718 3.83835C25.7782 4.36778 25.647 3.57364 25.647 3.57364C25.3846 1.52211 24.0727 0.661785 24.0727 0.661785C24.4007 1.78682 23.8759 3.57364 23.8759 3.57364C23.6136 4.10307 23.2856 3.90453 23.2856 3.90453C22.3672 3.44128 22.6296 2.11771 22.6296 2.11771C20.9241 3.04421 20.9241 4.6325 20.9241 4.6325C14.2333 4.23543 10.0352 0 10.0352 0C9.11682 2.11771 9.70719 4.16925 9.70719 4.16925C8.59205 3.3751 7.08334 3.57364 7.08334 3.57364C8.39526 4.83103 6.88655 5.09575 6.88655 5.09575C4.00033 4.96339 3.27877 6.41932 3.27877 6.41932C3.80354 6.61785 4.26271 7.34582 4.26271 7.34582C4.72188 8.53703 4.00033 8.86792 4.00033 8.86792C2.95079 9.39735 1.83566 7.67671 1.83566 7.67671C1.63887 11.2503 3.93473 11.7798 3.93473 11.7798C3.54116 12.243 1.70447 11.9783 1.70447 11.9783C3.34437 12.7725 3.21318 13.5004 3.21318 13.5004C3.01639 14.2284 1.83566 14.1622 1.83566 14.1622C0.917313 14.2946 0.261352 14.8902 0.261352 14.8902C2.42602 15.552 2.36043 17.1402 2.36043 17.1402C1.1797 18.2653 0.13016 16.9417 0.13016 16.9417C0.589333 19.655 2.95079 19.9197 2.95079 19.9197C3.60675 20.3168 3.14758 20.5815 3.14758 20.5815C2.8852 20.9124 1.96685 21.8389 1.96685 21.8389C1.37649 22.3683 1.37649 23.8243 1.37649 23.8243C1.83566 23.2948 3.54116 22.8978 3.54116 22.8978C5.18106 22.8316 4.78748 24.2875 4.78748 24.2875C4.78748 24.9493 3.47556 26.2729 3.47556 26.2729C4.3939 26.8023 6.62417 26.8023 6.62417 26.8023C7.7393 26.8023 7.67371 27.2656 7.67371 27.2656C7.7393 28.2582 6.68977 29.5156 6.68977 29.5156C7.41132 28.8538 9.83838 28.3244 9.83838 28.3244C11.0847 28.1921 10.6911 28.8538 10.7567 28.8538C10.4943 30.4421 11.0847 31.8319 11.1503 32.0304C11.6751 30.3759 12.8558 29.7803 12.987 29.7142C13.9053 29.3833 13.7741 30.1774 13.7741 30.3098C14.0365 30.5083 15.2829 31.3024 17.1851 30.773C18.2347 30.5083 19.481 30.045 20.5961 29.1847C21.1865 28.7877 21.9081 28.1259 22.6296 27.1332C22.9576 26.6699 23.3512 26.1405 23.6791 25.4787H23.7447C24.4007 24.3537 24.9255 22.9639 25.319 21.2433C25.319 21.2433 25.7126 23.2948 26.6966 25.4787H26.9589C26.9589 25.4787 28.5333 28.5229 30.7635 29.8465C33.2562 31.3686 34.3057 31.8319 36.4704 31.5672C36.7984 31.501 36.9951 31.501 37.0607 31.4348C36.9951 31.3686 36.9951 31.3024 36.9295 31.2363C37.5855 30.2436 38.1759 30.7068 38.1759 30.7068C38.5039 30.9715 38.4383 31.501 38.4383 31.501C40.0126 30.8392 40.275 28.8538 40.275 28.8538C40.7341 27.9935 41.3901 28.5229 41.3901 28.5229C42.1116 28.8538 42.374 29.9789 42.374 29.9789C42.9644 28.4568 42.5708 26.9347 42.5708 26.9347C42.4396 26.3391 42.8332 26.5376 42.8332 26.5376C45.6538 27.1332 46.441 26.4052 46.441 26.4052C45.457 25.942 45.3258 24.4861 45.3258 24.4861C45.3914 23.361 46.441 23.6257 46.441 23.6257C47.4905 23.8243 48.0809 24.5522 48.0809 24.5522C48.2777 22.7654 46.8346 21.3095 46.8346 21.3095C46.6378 20.7139 47.0313 20.4492 47.0313 20.4492C49.7208 19.4565 49.7208 17.9344 49.7208 17.9344C48.1465 18.2653 47.8185 16.9417 47.8185 16.9417C48.7368 15.0225 50.9015 15.6843 50.9015 15.6843Z" fill="var(--fill-0, #0A9C9A)"/>
<path id="path4512 7 2 9 3 0 0 1 8 1" d="M25.4505 18.5273C23.9418 19.0568 22.4331 21.9686 22.4331 21.9686C22.6299 24.7481 25.3849 27.2629 25.4505 27.3291C25.5161 27.2629 28.14 24.7481 28.3368 21.9686C28.3368 21.9686 26.8937 19.0568 25.4505 18.5273Z" fill="var(--fill-0, #0A5B59)"/>
<path id="path4512 7 2 9 3 0 09 7 1" d="M22.5 22.5667C22.5 22.5667 23.9431 19.9196 25.3862 19.4563V27.3977C25.4518 27.3977 22.6968 25.1477 22.5 22.5667Z" fill="var(--fill-0, #FAB84A)"/>
<path id="path4512 8 4 04 8 3 9 3 4 1" d="M28.205 22.5667C28.205 22.5667 26.8274 19.9196 25.3843 19.4563V27.3977C25.3843 27.3977 28.0082 25.0815 28.205 22.5667Z" fill="var(--fill-0, #E9934C)"/>
<path id="path15852 5 32 1" d="M13.9728 25.8762C18.8998 25.8762 22.8939 21.8466 22.8939 16.8759C22.8939 11.9052 18.8998 7.87562 13.9728 7.87562C9.04584 7.87562 5.05174 11.9052 5.05174 16.8759C5.05174 21.8466 9.04584 25.8762 13.9728 25.8762Z" fill="var(--fill-0, #0A5B59)"/>
<path id="path4532 0 8 4 5 4 92 4 1" d="M14.4957 25.9406C18.9517 25.9406 22.564 22.0888 22.564 17.3374C22.564 12.5859 18.9517 8.73416 14.4957 8.73416C10.0397 8.73416 6.42735 12.5859 6.42735 17.3374C6.42735 22.0888 10.0397 25.9406 14.4957 25.9406Z" fill="var(--fill-0, #F2EEE3)"/>
<path id="path15852 7 8 12 1" d="M36.9311 25.8762C41.8581 25.8762 45.8522 21.8466 45.8522 16.8759C45.8522 11.9052 41.8581 7.87562 36.9311 7.87562C32.0042 7.87562 28.0101 11.9052 28.0101 16.8759C28.0101 21.8466 32.0042 25.8762 36.9311 25.8762Z" fill="var(--fill-0, #0A5B59)"/>
<path id="path4532 2 9 5 0 9 8 9 10 1" d="M36.3399 25.9406C40.7959 25.9406 44.4082 22.0888 44.4082 17.3374C44.4082 12.5859 40.7959 8.73416 36.3399 8.73416C31.8839 8.73416 28.2716 12.5859 28.2716 17.3374C28.2716 22.0888 31.8839 25.9406 36.3399 25.9406Z" fill="var(--fill-0, #F2EEE3)"/>
<path id="path4532 4 4 9 7 9 82 2 6 1" d="M16.3327 22.6999C18.9411 22.6999 21.0556 20.5666 21.0556 17.9351C21.0556 15.3035 18.9411 13.1702 16.3327 13.1702C13.7243 13.1702 11.6098 15.3035 11.6098 17.9351C11.6098 20.5666 13.7243 22.6999 16.3327 22.6999Z" fill="var(--fill-0, #FAB84A)"/>
<path id="path4532 4 5 8 4 6 8 4 1 21 1" d="M16.3329 21.4415C18.2892 21.4415 19.875 19.8415 19.875 17.8679C19.875 15.8942 18.2892 14.2942 16.3329 14.2942C14.3766 14.2942 12.7907 15.8942 12.7907 17.8679C12.7907 19.8415 14.3766 21.4415 16.3329 21.4415Z" fill="var(--fill-0, #201E1E)"/>
<path id="path4532 4 5 5 8 4 3 1 5 5 9 1" d="M14.3644 16.7423C14.9803 16.7423 15.4795 16.2386 15.4795 15.6173C15.4795 14.9959 14.9803 14.4922 14.3644 14.4922C13.7485 14.4922 13.2493 14.9959 13.2493 15.6173C13.2493 16.2386 13.7485 16.7423 14.3644 16.7423Z" fill="var(--fill-0, #FEFEFE)"/>
<path id="path4532 4 1 2 4 6 8 5 2 4 1" d="M34.7649 22.6999C37.3733 22.6999 39.4878 20.5666 39.4878 17.9351C39.4878 15.3035 37.3733 13.1702 34.7649 13.1702C32.1565 13.1702 30.042 15.3035 30.042 17.9351C30.042 20.5666 32.1565 22.6999 34.7649 22.6999Z" fill="var(--fill-0, #FAB84A)"/>
<path id="path4532 4 5 7 4 9 1 2 1 4 31 1" d="M34.8315 21.5065C36.7878 21.5065 38.3737 19.9066 38.3737 17.9329C38.3737 15.9592 36.7878 14.3592 34.8315 14.3592C32.8752 14.3592 31.2893 15.9592 31.2893 17.9329C31.2893 19.9066 32.8752 21.5065 34.8315 21.5065Z" fill="var(--fill-0, #201E1E)"/>
<path id="path4532 4 5 5 1 5 9 5 6 7 7 7 1" d="M32.8629 16.7423C33.4788 16.7423 33.978 16.2386 33.978 15.6173C33.978 14.9959 33.4788 14.4922 32.8629 14.4922C32.247 14.4922 31.7478 14.9959 31.7478 15.6173C31.7478 16.2386 32.247 16.7423 32.8629 16.7423Z" fill="var(--fill-0, #FEFEFE)"/>
<path id="path7408 4 4 2 2 1" d="M17.5797 30.6407C17.5797 30.6407 15.8087 31.3025 13.7096 30.1774C13.7096 30.1774 12.1353 29.5156 11.2169 32.2951C11.1513 32.2951 10.1018 31.3686 10.4954 29.1186C10.4954 29.1186 10.7578 28.523 9.57703 28.6553C9.57703 28.6553 6.75639 29.5818 6.36282 30.1112C6.36282 30.1112 7.41235 28.523 7.34676 27.4641C7.34676 27.4641 7.34676 27.067 6.29722 27.1332C6.29722 27.1332 4.06696 27.1332 3.14861 26.4714C3.2798 26.4714 4.46053 25.4126 4.59172 24.4861C4.59172 24.4861 4.85411 23.0963 3.60778 23.1625C3.60778 23.1625 2.09907 23.1625 1.18073 24.089C1.18073 24.089 0.852749 22.236 2.88623 20.7139C2.88623 20.7139 3.3454 20.4492 2.82063 20.1845C2.82063 20.1845 0.524769 19.4565 0 16.7432C0 16.7432 0.918345 17.9344 1.83669 17.4712C1.83669 17.4712 2.03348 17.405 2.09907 17.1403C2.09907 17.1403 2.03348 15.552 0 14.8902C0 14.8902 0.655961 14.1622 2.16467 14.0299C2.16467 14.0299 3.21421 13.699 2.68944 12.971C2.68944 12.971 1.96788 12.1769 1.50871 11.9122C1.50871 11.9122 3.14861 11.9783 3.67338 11.6474C3.60778 11.6474 1.37752 11.3827 1.77109 7.54437C1.77109 7.54437 3.411 9.9268 4.13255 8.27234C4.06696 8.13998 4.39494 7.1473 2.95182 6.35316C2.95182 6.35316 3.87017 4.89723 6.6252 4.83106C6.6252 4.83106 7.93712 4.50016 6.82199 3.37513C6.82199 3.37513 8.65868 3.04424 9.44583 3.83838C9.44583 3.7722 9.11785 2.18392 9.9706 2.40545e-05C9.9706 2.40545e-05 9.70822 3.97073 10.2986 5.49284C10.233 5.42666 9.31464 4.16927 8.13391 3.70602C8.13391 3.70602 8.72428 5.75755 6.6252 5.82373C6.6252 5.82373 4.9197 5.49284 4.13255 6.15463C4.13255 6.15463 5.37888 8.47087 4.39494 9.46355C4.39494 9.46355 3.47659 10.2577 2.36146 9.13266C2.36146 9.13266 2.23027 10.9857 4.65732 11.5151C4.65732 11.5151 4.26374 12.5078 3.01742 12.5078C3.01742 12.5078 4.06696 13.5004 3.2798 14.2946C3.2798 14.2946 2.49265 14.9564 1.50871 14.9564C1.50871 14.9564 3.21421 15.949 3.01742 17.5373C3.01742 17.5373 2.49265 18.7947 1.04954 18.3315C1.04954 18.3315 1.96788 19.1256 3.47659 19.655C3.47659 19.655 4.39494 20.2507 4.00136 20.9124C4.00136 20.9124 2.55825 21.4419 2.16467 22.8978C2.16467 22.8978 4.26374 21.8389 5.24768 22.6331C5.24768 22.6331 5.90365 24.5523 4.32934 26.1405C4.32934 26.1405 7.41235 26.67 8.65868 26.4714C8.65868 26.4714 8.2651 28.1921 7.93712 28.6553C8.13391 28.5891 10.4298 27.5965 11.8729 27.9274C11.8729 27.9274 10.8234 29.9789 10.9545 30.7069C10.9545 30.7069 12.7912 28.7877 14.2999 29.0524C14.3655 28.9862 13.8408 30.1774 17.5797 30.6407Z" fill="var(--fill-0, #0A5B59)"/>
<path id="path7468 3 5 8 1 1" d="M33.1263 30.9715C33.1263 30.9715 34.4383 32.0966 37.2589 31.4348C37.2589 31.4348 37.6525 31.3024 37.9148 31.1039C37.9148 31.1039 38.4396 30.6407 38.4396 31.5672C38.4396 31.5672 40.3419 31.1701 40.6043 29.1185C40.6043 29.1185 40.7355 28.3244 41.5882 28.92C41.5882 28.92 42.0474 29.3171 42.3098 30.3759C42.3098 30.3759 43.3593 28.6553 42.8346 27.0008C42.8346 27.0008 42.8346 26.6699 43.1625 26.7361C43.1625 26.7361 45.5896 27.4641 46.7047 26.4714C46.7047 26.4714 45.3928 25.7434 45.7208 24.0228C45.7208 24.0228 45.9832 23.4934 46.9671 23.8243C46.9671 23.8243 48.0166 24.2213 48.1478 24.7508C48.1478 24.7508 48.5414 22.7654 47.0327 21.3095C47.0327 21.3095 46.6391 20.8462 47.2951 20.5153C47.2951 20.5153 49.5254 19.5888 49.8533 17.8682C49.8533 17.8682 48.4758 18.4638 47.951 17.0079C47.951 17.0079 48.6726 15.1549 50.9029 15.7505C50.9029 15.7505 50.2469 14.096 47.1639 13.5004C47.1639 13.5004 46.5735 13.3019 47.1639 12.4416L48.1478 11.1842C48.1478 11.1842 46.7703 11.9121 46.1144 11.5812C46.1144 11.5812 45.9176 11.5151 46.2455 11.3827C46.2455 11.3827 48.4758 10.39 48.2134 7.41199C48.2134 7.41199 46.2455 8.86792 45.3272 7.47817C45.3272 7.47817 44.9992 6.61785 46.8359 5.82371C46.8359 5.82371 45.9832 3.97071 41.3258 4.50014C41.3258 4.50014 42.113 1.91918 40.6043 0C40.6043 0 41.8506 4.10307 40.2763 5.559C40.2763 5.559 43.2281 4.3016 46.1144 5.69135C46.1144 5.69135 44.3433 5.69135 44.9336 7.94142C44.9336 7.94142 45.5896 9.00028 47.6887 8.53703C47.6887 8.53703 46.5735 10.7871 45.2616 11.5812C45.2616 11.5812 46.2455 12.1768 46.9015 12.1107C46.8359 12.243 46.0488 13.5004 45.7864 13.6328C45.7864 13.6328 47.8199 13.8975 49.1974 15.0225C49.1974 15.0225 47.8854 15.3534 47.2951 17.1402C47.2951 17.1402 48.0166 18.4638 48.7382 18.6623C48.7382 18.5962 47.2295 20.1183 45.9832 20.5153C46.0488 20.6477 47.4263 22.8978 47.6887 23.7581C47.6887 23.7581 46.5735 22.7654 45.196 23.5596C45.196 23.5596 44.6712 25.1478 45.3272 26.3391C45.3272 26.3391 43.5561 26.5376 42.2442 26.0082C42.2442 26.0082 42.3754 28.3906 42.1786 28.9862C42.1786 28.9862 41.0635 27.9935 40.0139 28.1259C40.0139 28.1259 39.8171 30.2436 39.03 30.5083C39.03 30.5083 38.5708 29.9127 37.9804 29.7142C38.3084 29.7142 36.2749 31.7657 33.1263 30.9715Z" fill="var(--fill-0, #0A5B59)"/>
</g>
</svg>
