<svg preserveAspectRatio="none" width="100%" height="100%" overflow="visible" style="display: block;" viewBox="0 0 15 15" fill="none" xmlns="http://www.w3.org/2000/svg">
<path id="Mask" d="M6.375 0C9.9 0 12.75 2.85 12.75 6.375C12.75 7.87479 12.2252 9.29965 11.4004 10.3496L14.7754 13.7246C15.0754 14.0246 15.0754 14.4754 14.7754 14.7754C14.6254 14.9254 14.4 15 14.25 15C14.1 15 13.8746 14.9254 13.7246 14.7754L10.3496 11.4004C9.2247 12.2252 7.8748 12.75 6.375 12.75C2.85 12.75 0 9.9 0 6.375C0 2.85 2.85 0 6.375 0ZM6.375 1.5C3.675 1.5 1.5 3.675 1.5 6.375C1.5 9.075 3.675 11.25 6.375 11.25C7.725 11.25 8.9252 10.7252 9.8252 9.8252C10.7252 8.9252 11.25 7.725 11.25 6.375C11.25 3.675 9.075 1.5 6.375 1.5Z" fill="var(--fill-0, white)"/>
</svg>
