<svg preserveAspectRatio="none" width="100%" height="100%" overflow="visible" style="display: block;" viewBox="0 0 20 20" fill="none" xmlns="http://www.w3.org/2000/svg">
<g id="sports_esports">
<mask id="mask0_10030_57425" style="mask-type:alpha" maskUnits="userSpaceOnUse" x="0" y="0" width="20" height="20">
<rect id="Bounding box" width="20" height="20" fill="var(--fill-0, #D9D9D9)"/>
</mask>
<g mask="url(#mask0_10030_57425)">
<path id="sports_esports_2" d="M3.79168 15.8333C3.08335 15.8333 2.53473 15.5868 2.14585 15.0938C1.75696 14.6007 1.61112 14 1.70835 13.2917L2.58335 7.04167C2.70835 6.20833 3.07987 5.52083 3.69793 4.97917C4.31598 4.4375 5.04168 4.16667 5.87501 4.16667H14.125C14.9583 4.16667 15.684 4.4375 16.3021 4.97917C16.9202 5.52083 17.2917 6.20833 17.4167 7.04167L18.2917 13.2917C18.3889 14 18.2431 14.6007 17.8542 15.0938C17.4653 15.5868 16.9167 15.8333 16.2083 15.8333C15.9167 15.8333 15.6458 15.7813 15.3958 15.6771C15.1458 15.5729 14.9167 15.4167 14.7083 15.2083L12.8333 13.3333H7.16668L5.29168 15.2083C5.08335 15.4167 4.85418 15.5729 4.60418 15.6771C4.35418 15.7813 4.08335 15.8333 3.79168 15.8333ZM4.12501 14.0417L6.50001 11.6667H13.5L15.875 14.0417C15.9028 14.0694 16.0139 14.1111 16.2083 14.1667C16.3611 14.1667 16.4827 14.1215 16.5729 14.0313C16.6632 13.941 16.6945 13.8194 16.6667 13.6667L15.75 7.25C15.6945 6.84722 15.5139 6.51042 15.2083 6.23958C14.9028 5.96875 14.5417 5.83333 14.125 5.83333H5.87501C5.45835 5.83333 5.09723 5.96875 4.79168 6.23958C4.48612 6.51042 4.30557 6.84722 4.25001 7.25L3.33335 13.6667C3.30557 13.8194 3.33682 13.941 3.4271 14.0313C3.51737 14.1215 3.6389 14.1667 3.79168 14.1667C3.81946 14.1667 3.93057 14.125 4.12501 14.0417ZM14.1667 10.8333C14.4028 10.8333 14.6007 10.7535 14.7604 10.5938C14.9202 10.434 15 10.2361 15 10C15 9.76389 14.9202 9.56597 14.7604 9.40625C14.6007 9.24653 14.4028 9.16667 14.1667 9.16667C13.9306 9.16667 13.7327 9.24653 13.5729 9.40625C13.4132 9.56597 13.3333 9.76389 13.3333 10C13.3333 10.2361 13.4132 10.434 13.5729 10.5938C13.7327 10.7535 13.9306 10.8333 14.1667 10.8333ZM12.5 8.33333C12.7361 8.33333 12.934 8.25347 13.0938 8.09375C13.2535 7.93403 13.3333 7.73611 13.3333 7.5C13.3333 7.26389 13.2535 7.06597 13.0938 6.90625C12.934 6.74653 12.7361 6.66667 12.5 6.66667C12.2639 6.66667 12.066 6.74653 11.9063 6.90625C11.7465 7.06597 11.6667 7.26389 11.6667 7.5C11.6667 7.73611 11.7465 7.93403 11.9063 8.09375C12.066 8.25347 12.2639 8.33333 12.5 8.33333ZM6.45835 10.8333H7.70835V9.375H9.16668V8.125H7.70835V6.66667H6.45835V8.125H5.00001V9.375H6.45835V10.8333Z" fill="var(--fill-0, white)"/>
</g>
</g>
</svg>
