<svg preserveAspectRatio="none" width="100%" height="100%" overflow="visible" style="display: block;" viewBox="0 0 20 20" fill="none" xmlns="http://www.w3.org/2000/svg">
<g id="auto_stories">
<mask id="mask0_10030_57417" style="mask-type:alpha" maskUnits="userSpaceOnUse" x="0" y="0" width="20" height="20">
<rect id="Bounding box" width="20" height="20" fill="var(--fill-0, #D9D9D9)"/>
</mask>
<g mask="url(#mask0_10030_57417)">
<path id="auto_stories_2" d="M10 16.6667C9.33333 16.1389 8.61111 15.7292 7.83333 15.4375C7.05556 15.1458 6.25 15 5.41667 15C4.83333 15 4.26042 15.0764 3.69792 15.2292C3.13542 15.3819 2.59722 15.5972 2.08333 15.875C1.79167 16.0278 1.51042 16.0208 1.23958 15.8542C0.96875 15.6875 0.833333 15.4444 0.833333 15.125V5.08333C0.833333 4.93056 0.871528 4.78472 0.947917 4.64583C1.02431 4.50694 1.13889 4.40278 1.29167 4.33333C1.93056 4 2.59722 3.75 3.29167 3.58333C3.98611 3.41667 4.69444 3.33333 5.41667 3.33333C6.22222 3.33333 7.01042 3.4375 7.78125 3.64583C8.55208 3.85417 9.29167 4.16667 10 4.58333V14.6667C10.7083 14.2222 11.4514 13.8889 12.2292 13.6667C13.0069 13.4444 13.7917 13.3333 14.5833 13.3333C15.0833 13.3333 15.5729 13.375 16.0521 13.4583C16.5313 13.5417 17.0139 13.6667 17.5 13.8333V3.83333C17.7083 3.90278 17.9132 3.97569 18.1146 4.05208C18.316 4.12847 18.5139 4.22222 18.7083 4.33333C18.8611 4.40278 18.9757 4.50694 19.0521 4.64583C19.1285 4.78472 19.1667 4.93056 19.1667 5.08333V15.125C19.1667 15.4444 19.0313 15.6875 18.7604 15.8542C18.4896 16.0208 18.2083 16.0278 17.9167 15.875C17.4028 15.5972 16.8646 15.3819 16.3021 15.2292C15.7396 15.0764 15.1667 15 14.5833 15C13.75 15 12.9444 15.1458 12.1667 15.4375C11.3889 15.7292 10.6667 16.1389 10 16.6667ZM11.6667 12.5V4.58333L15.8333 0.416667V8.75L11.6667 12.5ZM8.33333 13.8542V5.60417C7.875 5.40972 7.39931 5.26042 6.90625 5.15625C6.41319 5.05208 5.91667 5 5.41667 5C4.90278 5 4.40278 5.04861 3.91667 5.14583C3.43056 5.24306 2.95833 5.38889 2.5 5.58333V13.8542C2.98611 13.6736 3.46875 13.5417 3.94792 13.4583C4.42708 13.375 4.91667 13.3333 5.41667 13.3333C5.91667 13.3333 6.40625 13.375 6.88542 13.4583C7.36458 13.5417 7.84722 13.6736 8.33333 13.8542Z" fill="var(--fill-0, white)"/>
</g>
</g>
</svg>
