<svg preserveAspectRatio="none" width="100%" height="100%" overflow="visible" style="display: block;" viewBox="0 0 24 24" fill="none" xmlns="http://www.w3.org/2000/svg">
<g id="book_5">
<mask id="mask0_10030_57409" style="mask-type:alpha" maskUnits="userSpaceOnUse" x="0" y="0" width="24" height="24">
<rect id="Bounding box" width="24" height="24" fill="var(--fill-0, #D9D9D9)"/>
</mask>
<g mask="url(#mask0_10030_57409)">
<path id="book_5_2" d="M3.25 22C2.5 22 1.85417 21.7458 1.3125 21.2375C0.770833 20.7292 0.5 20.1 0.5 19.35V5.4C0.5 4.76667 0.695833 4.2 1.0875 3.7C1.47917 3.2 1.99167 2.88334 2.625 2.75L12.5 0.800003V16.8L3.025 18.7C2.875 18.7333 2.75 18.8125 2.65 18.9375C2.55 19.0625 2.5 19.2 2.5 19.35C2.5 19.5333 2.575 19.6875 2.725 19.8125C2.875 19.9375 3.05 20 3.25 20H14.5V4H16.5V22H3.25ZM5.5 16.175L10.5 15.2V3.25L5.5 4.225V16.175ZM3.5 16.575V4.625L3.125 4.7C2.94167 4.73334 2.79167 4.8125 2.675 4.9375C2.55833 5.0625 2.5 5.21667 2.5 5.4V16.825C2.58333 16.7917 2.67083 16.7625 2.7625 16.7375C2.85417 16.7125 2.94167 16.6917 3.025 16.675L3.5 16.575Z" fill="var(--fill-0, white)"/>
</g>
</g>
</svg>
