<svg width="16" height="16" viewBox="0 0 16 16" fill="none" xmlns="http://www.w3.org/2000/svg">
<g clip-path="url(#clip0_10106_62574)">
<path d="M5.58553 4.68805C5.61366 4.5956 5.74454 4.5956 5.77268 4.68805L6.66822 7.63032C6.67771 7.66152 6.70212 7.68593 6.73331 7.69542L9.67559 8.59096C9.76804 8.61909 9.76804 8.74997 9.67559 8.77811L6.73331 9.67365C6.70212 9.68314 6.67771 9.70755 6.66822 9.73874L5.77268 12.681C5.74454 12.7735 5.61366 12.7735 5.58553 12.681L4.68999 9.73874C4.6805 9.70755 4.65609 9.68314 4.62489 9.67365L1.68262 8.77811C1.59017 8.74997 1.59017 8.61909 1.68262 8.59096L4.62489 7.69542C4.65609 7.68593 4.6805 7.66152 4.68999 7.63032L5.58553 4.68805Z" fill="#7367F0"/>
<path d="M6.71766 1.37344C6.72891 1.33646 6.78127 1.33646 6.79252 1.37344L7.13704 2.50535C7.14084 2.51783 7.1506 2.52759 7.16308 2.53139L8.29499 2.87591C8.33197 2.88717 8.33197 2.93952 8.29499 2.95077L7.16308 3.29529C7.1506 3.29909 7.14084 3.30885 7.13704 3.32133L6.79252 4.45325C6.78127 4.49023 6.72891 4.49023 6.71766 4.45325L6.37314 3.32133C6.36934 3.30885 6.35958 3.29909 6.3471 3.29529L5.21518 2.95077C5.17821 2.93952 5.17821 2.88717 5.21518 2.87591L6.3471 2.53139C6.35958 2.52759 6.36934 2.51783 6.37314 2.50535L6.71766 1.37344Z" fill="#7367F0"/>
<path d="M10.7281 2.15597C10.7394 2.11899 10.7918 2.11899 10.803 2.15597L11.3986 4.1128C11.4024 4.12527 11.4122 4.13504 11.4246 4.13884L13.3815 4.73443C13.4184 4.74569 13.4184 4.79804 13.3815 4.80929L11.4246 5.40489C11.4122 5.40869 11.4024 5.41845 11.3986 5.43093L10.803 7.38775C10.7918 7.42473 10.7394 7.42473 10.7281 7.38775L10.1326 5.43093C10.1288 5.41845 10.119 5.40869 10.1065 5.40489L8.14969 4.80929C8.11271 4.79804 8.11271 4.74569 8.14969 4.73443L10.1065 4.13884C10.119 4.13504 10.1288 4.12527 10.1326 4.1128L10.7281 2.15597Z" fill="#7367F0"/>
<path d="M12.8801 6.06864C12.8914 6.03167 12.9437 6.03167 12.955 6.06864L13.2767 7.12557C13.2805 7.13805 13.2902 7.14781 13.3027 7.15161L14.3596 7.4733C14.3966 7.48456 14.3966 7.53691 14.3596 7.54816L13.3027 7.86986C13.2902 7.87366 13.2805 7.88342 13.2767 7.8959L12.955 8.95282C12.9437 8.9898 12.8914 8.9898 12.8801 8.95282L12.5584 7.8959C12.5546 7.88342 12.5449 7.87366 12.5324 7.86986L11.4755 7.54816C11.4385 7.53691 11.4385 7.48456 11.4755 7.4733L12.5324 7.15161C12.5449 7.14781 12.5546 7.13805 12.5584 7.12557L12.8801 6.06864Z" fill="#7367F0"/>
<path d="M10.6303 9.19878C10.6416 9.1618 10.6939 9.1618 10.7052 9.19878L11.3236 11.2306C11.3274 11.2431 11.3372 11.2528 11.3497 11.2566L13.3815 11.8751C13.4184 11.8863 13.4184 11.9387 13.3815 11.9499L11.3497 12.5683C11.3372 12.5721 11.3274 12.5819 11.3236 12.5944L10.7052 14.6262C10.6939 14.6632 10.6416 14.6632 10.6303 14.6262L10.0119 12.5944C10.0081 12.5819 9.99835 12.5721 9.98587 12.5683L7.95405 11.9499C7.91708 11.9387 7.91708 11.8863 7.95405 11.8751L9.98587 11.2566C9.99835 11.2528 10.0081 11.2431 10.0119 11.2306L10.6303 9.19878Z" fill="#7367F0"/>
</g>
<defs>
<clipPath id="clip0_10106_62574">
<rect width="16" height="16" fill="white"/>
</clipPath>
</defs>
</svg>
