<svg preserveAspectRatio="none" width="100%" height="100%" overflow="visible" style="display: block;" viewBox="0 0 20 20" fill="none" xmlns="http://www.w3.org/2000/svg">
<g id="Vector">
<path d="M5.95837 5.01351C6.00057 4.87484 6.1969 4.87484 6.2391 5.01351L7.58241 9.42693C7.59665 9.47372 7.63326 9.51033 7.68005 9.52458L12.0935 10.8679C12.2321 10.9101 12.2321 11.1064 12.0935 11.1486L7.68005 12.4919C7.63326 12.5062 7.59665 12.5428 7.58241 12.5896L6.2391 17.003C6.1969 17.1416 6.00057 17.1416 5.95837 17.003L4.61506 12.5896C4.60082 12.5428 4.56421 12.5062 4.51742 12.4919L0.104002 11.1486C-0.0346676 11.1064 -0.034667 10.9101 0.104002 10.8679L4.51742 9.52458C4.56421 9.51033 4.60082 9.47372 4.61506 9.42693L5.95837 5.01351Z" fill="currentColor"/>
<path d="M7.65657 0.0416008C7.67345 -0.0138668 7.75198 -0.013867 7.76886 0.0416006L8.28564 1.73948C8.29133 1.75819 8.30598 1.77284 8.3247 1.77853L10.0226 2.29531C10.078 2.31219 10.078 2.39072 10.0226 2.40761L8.3247 2.92438C8.30598 2.93008 8.29133 2.94473 8.28564 2.96344L7.76886 4.66132C7.75198 4.71678 7.67345 4.71678 7.65657 4.66132L7.13979 2.96344C7.13409 2.94473 7.11944 2.93008 7.10073 2.92438L5.40285 2.40761C5.34739 2.39072 5.34739 2.31219 5.40285 2.29531L7.10073 1.77853C7.11944 1.77284 7.13409 1.75819 7.13979 1.73948L7.65657 0.0416008Z" fill="currentColor"/>
<path d="M13.6723 1.2154C13.6892 1.15993 13.7677 1.15993 13.7846 1.2154L14.678 4.15064C14.6837 4.16936 14.6983 4.184 14.717 4.1897L17.6523 5.08309C17.7077 5.09997 17.7077 5.1785 17.6523 5.19538L14.717 6.08878C14.6983 6.09447 14.6837 6.10912 14.678 6.12783L13.7846 9.06307C13.7677 9.11854 13.6892 9.11854 13.6723 9.06307L12.7789 6.12783C12.7732 6.10912 12.7586 6.09447 12.7398 6.08878L9.80461 5.19538C9.74914 5.1785 9.74914 5.09997 9.80461 5.08309L12.7398 4.1897C12.7586 4.184 12.7732 4.16936 12.7789 4.15064L13.6723 1.2154Z" fill="currentColor"/>
<path d="M16.9003 7.08441C16.9171 7.02894 16.9957 7.02894 17.0125 7.08441L17.4951 8.6698C17.5008 8.68851 17.5154 8.70316 17.5341 8.70886L19.1195 9.1914C19.175 9.20828 19.175 9.28681 19.1195 9.30369L17.5341 9.78623C17.5154 9.79193 17.5008 9.80657 17.4951 9.82529L17.0125 11.4107C16.9957 11.4661 16.9171 11.4661 16.9003 11.4107L16.4177 9.82529C16.412 9.80657 16.3974 9.79193 16.3787 9.78623L14.7933 9.30369C14.7378 9.28681 14.7378 9.20828 14.7933 9.1914L16.3787 8.70886C16.3974 8.70316 16.412 8.68851 16.4177 8.6698L16.9003 7.08441Z" fill="currentColor"/>
<path d="M13.5256 11.7796C13.5425 11.7242 13.621 11.7242 13.6379 11.7796L14.5655 14.8273C14.5712 14.8461 14.5858 14.8607 14.6046 14.8664L17.6523 15.794C17.7077 15.8109 17.7077 15.8894 17.6523 15.9063L14.6046 16.834C14.5858 16.8397 14.5712 16.8543 14.5655 16.873L13.6379 19.9207C13.621 19.9762 13.5425 19.9762 13.5256 19.9207L12.5979 16.873C12.5922 16.8543 12.5776 16.8397 12.5589 16.834L9.51116 15.9063C9.45569 15.8894 9.45569 15.8109 9.51116 15.794L12.5589 14.8664C12.5776 14.8607 12.5922 14.8461 12.5979 14.8273L13.5256 11.7796Z" fill="currentColor"/>
</g>
</svg>

