<svg preserveAspectRatio="none" width="100%" height="100%" overflow="visible" style="display: block;" viewBox="0 0 13 14" fill="none" xmlns="http://www.w3.org/2000/svg">
<g id="Vector">
<path d="M3.97224 3.34234C4.00038 3.2499 4.13126 3.2499 4.1594 3.34234L5.05494 6.28462C5.06443 6.31581 5.08884 6.34022 5.12003 6.34972L8.06231 7.24525C8.15476 7.27339 8.15476 7.40427 8.06231 7.43241L5.12003 8.32794C5.08884 8.33744 5.06443 8.36185 5.05494 8.39304L4.1594 11.3353C4.13126 11.4278 4.00038 11.4278 3.97224 11.3353L3.07671 8.39304C3.06722 8.36185 3.0428 8.33744 3.01161 8.32794L0.0693344 7.43241C-0.0231117 7.40427 -0.0231113 7.27339 0.0693348 7.24525L3.01161 6.34972C3.0428 6.34022 3.06722 6.31581 3.07671 6.28462L3.97224 3.34234Z" fill="var(--fill-0, #7367F0)"/>
<path d="M5.10438 0.0277339C5.11563 -0.00924454 5.16798 -0.00924468 5.17924 0.0277338L5.52376 1.15965C5.52756 1.17213 5.53732 1.18189 5.5498 1.18569L6.68171 1.53021C6.71869 1.54146 6.71869 1.59382 6.68171 1.60507L5.5498 1.94959C5.53732 1.95339 5.52756 1.96315 5.52376 1.97563L5.17924 3.10754C5.16798 3.14452 5.11563 3.14452 5.10438 3.10754L4.75986 1.97563C4.75606 1.96315 4.7463 1.95339 4.73382 1.94959L3.6019 1.60507C3.56492 1.59382 3.56492 1.54146 3.6019 1.53021L4.73382 1.18569C4.7463 1.18189 4.75606 1.17213 4.75986 1.15965L5.10438 0.0277339Z" fill="var(--fill-0, #7367F0)"/>
<path d="M9.11487 0.810268C9.12612 0.77329 9.17847 0.77329 9.18973 0.810268L9.78532 2.76709C9.78912 2.77957 9.79888 2.78933 9.81136 2.79313L11.7682 3.38873C11.8052 3.39998 11.8052 3.45233 11.7682 3.46359L9.81136 4.05918C9.79888 4.06298 9.78912 4.07275 9.78532 4.08522L9.18973 6.04205C9.17847 6.07903 9.12612 6.07903 9.11487 6.04205L8.51927 4.08522C8.51547 4.07275 8.50571 4.06298 8.49323 4.05918L6.53641 3.46359C6.49943 3.45233 6.49943 3.39998 6.53641 3.38873L8.49323 2.79313C8.50571 2.78933 8.51547 2.77957 8.51927 2.76709L9.11487 0.810268Z" fill="var(--fill-0, #7367F0)"/>
<path d="M11.2668 4.72294C11.2781 4.68596 11.3304 4.68596 11.3417 4.72294L11.6634 5.77987C11.6672 5.79234 11.677 5.80211 11.6894 5.8059L12.7464 6.1276C12.7833 6.13885 12.7833 6.19121 12.7464 6.20246L11.6894 6.52415C11.677 6.52795 11.6672 6.53772 11.6634 6.55019L11.3417 7.60712C11.3304 7.6441 11.2781 7.6441 11.2668 7.60712L10.9451 6.55019C10.9413 6.53772 10.9316 6.52795 10.9191 6.52415L9.86218 6.20246C9.8252 6.19121 9.8252 6.13885 9.86218 6.1276L10.9191 5.8059C10.9316 5.80211 10.9413 5.79234 10.9451 5.77987L11.2668 4.72294Z" fill="var(--fill-0, #7367F0)"/>
<path d="M9.01705 7.85308C9.0283 7.8161 9.08066 7.8161 9.09191 7.85308L9.71033 9.8849C9.71413 9.89737 9.72389 9.90714 9.73637 9.91093L11.7682 10.5294C11.8052 10.5406 11.8052 10.593 11.7682 10.6042L9.73637 11.2226C9.72389 11.2264 9.71413 11.2362 9.71033 11.2487L9.09191 13.2805C9.08066 13.3175 9.0283 13.3175 9.01705 13.2805L8.39863 11.2487C8.39483 11.2362 8.38507 11.2264 8.37259 11.2226L6.34077 10.6042C6.30379 10.593 6.30379 10.5406 6.34077 10.5294L8.37259 9.91093C8.38507 9.90714 8.39483 9.89737 8.39863 9.8849L9.01705 7.85308Z" fill="var(--fill-0, #7367F0)"/>
</g>
</svg>
