<svg preserveAspectRatio="none" width="100%" height="100%" overflow="visible" style="display: block;" viewBox="0 0 20 20" fill="none" xmlns="http://www.w3.org/2000/svg">
<g id="book_2">
<mask id="mask0_10030_57457" style="mask-type:alpha" maskUnits="userSpaceOnUse" x="0" y="0" width="20" height="20">
<rect id="Bounding box" width="20" height="20" fill="currentColor"/>
</mask>
<g mask="url(#mask0_10030_57457)">
<path id="book_2_2" d="M6.25 18.3333C5.44444 18.3333 4.75694 18.0486 4.1875 17.4792C3.61806 16.9097 3.33333 16.2222 3.33333 15.4167V4.58333C3.33333 3.77778 3.61806 3.09028 4.1875 2.52083C4.75694 1.95139 5.44444 1.66667 6.25 1.66667H16.6667V14.1667C16.3194 14.1667 16.0243 14.2882 15.7812 14.5312C15.5382 14.7743 15.4167 15.0694 15.4167 15.4167C15.4167 15.7639 15.5382 16.059 15.7812 16.3021C16.0243 16.5451 16.3194 16.6667 16.6667 16.6667V18.3333H6.25ZM5 12.7708C5.19444 12.6736 5.39583 12.6042 5.60417 12.5625C5.8125 12.5208 6.02778 12.5 6.25 12.5H6.66667V3.33333H6.25C5.90278 3.33333 5.60764 3.45486 5.36458 3.69792C5.12153 3.94097 5 4.23611 5 4.58333V12.7708ZM8.33333 12.5H15V3.33333H8.33333V12.5ZM6.25 16.6667H14.0208C13.9375 16.4722 13.8715 16.2743 13.8229 16.0729C13.7743 15.8715 13.75 15.6528 13.75 15.4167C13.75 15.1944 13.7708 14.9792 13.8125 14.7708C13.8542 14.5625 13.9236 14.3611 14.0208 14.1667H6.25C5.88889 14.1667 5.59028 14.2882 5.35417 14.5312C5.11806 14.7743 5 15.0694 5 15.4167C5 15.7778 5.11806 16.0764 5.35417 16.3125C5.59028 16.5486 5.88889 16.6667 6.25 16.6667Z" fill="currentColor"/>
</g>
</g>
</svg>

