<svg preserveAspectRatio="none" width="100%" height="100%" overflow="visible" style="display: block;" viewBox="0 0 17 17" fill="none" xmlns="http://www.w3.org/2000/svg">
<g id="math 1" clip-path="url(#clip0_10238_28721)">
<path id="Vector" d="M14.79 0H1.45996C0.654974 0 0 0.654974 0 1.45996V14.79C0 15.595 0.654974 16.25 1.45996 16.25H14.79C15.595 16.25 16.25 15.595 16.25 14.79V1.45996C16.25 0.654974 15.595 0 14.79 0ZM15.2979 1.45996V7.64893H8.60107V0.952148H14.79C15.07 0.952148 15.2979 1.18002 15.2979 1.45996ZM1.45996 0.952148H7.64893V7.64893H0.952148V1.45996C0.952148 1.18002 1.18002 0.952148 1.45996 0.952148ZM0.952148 14.79V8.60107H7.64893V15.2979H1.45996C1.18002 15.2979 0.952148 15.07 0.952148 14.79ZM14.79 15.2979H8.60107V8.60107H15.2979V14.79C15.2979 15.07 15.07 15.2979 14.79 15.2979Z" fill="var(--fill-0, white)"/>
<path id="Vector_2" d="M2.41211 4.79248H3.84033V6.2207C3.84033 6.48366 4.05345 6.69678 4.31641 6.69678C4.57936 6.69678 4.79248 6.48366 4.79248 6.2207V4.79248H6.2207C6.48366 4.79248 6.69678 4.57936 6.69678 4.31641C6.69678 4.05345 6.48366 3.84033 6.2207 3.84033H4.79248V2.41211C4.79248 2.14915 4.57936 1.93604 4.31641 1.93604C4.05345 1.93604 3.84033 2.14915 3.84033 2.41211V3.84033H2.41211C2.14915 3.84033 1.93604 4.05345 1.93604 4.31641C1.93604 4.57936 2.14915 4.79248 2.41211 4.79248Z" fill="var(--fill-0, white)"/>
<path id="Vector_3" d="M10.0293 4.79248H13.8379C14.1008 4.79248 14.314 4.57936 14.314 4.31641C14.314 4.05345 14.1008 3.84033 13.8379 3.84033H10.0293C9.76634 3.84033 9.55322 4.05345 9.55322 4.31641C9.55322 4.57936 9.76634 4.79248 10.0293 4.79248Z" fill="var(--fill-0, white)"/>
<path id="Vector_4" d="M6.2207 11.4575H2.41211C2.14915 11.4575 1.93604 11.6706 1.93604 11.9336C1.93604 12.1966 2.14915 12.4097 2.41211 12.4097H6.2207C6.48366 12.4097 6.69678 12.1966 6.69678 11.9336C6.69678 11.6706 6.48366 11.4575 6.2207 11.4575Z" fill="var(--fill-0, white)"/>
<path id="Vector_5" d="M13.9534 9.91379C13.7675 9.72795 13.4661 9.72795 13.2801 9.91379L11.9336 11.2603L10.5871 9.91379C10.4011 9.72795 10.0997 9.72795 9.91375 9.91379C9.72791 10.0998 9.72791 10.4011 9.91375 10.5871L11.2603 11.9336L9.91375 13.2802C9.72791 13.4661 9.72791 13.7675 9.91375 13.9535C10.0997 14.1393 10.4011 14.1394 10.5871 13.9535L11.9336 12.607L13.2801 13.9535C13.4661 14.1393 13.7675 14.1394 13.9534 13.9535C14.1393 13.7675 14.1393 13.4661 13.9534 13.2802L12.6069 11.9336L13.9534 10.5871C14.1393 10.4011 14.1393 10.0998 13.9534 9.91379Z" fill="var(--fill-0, white)"/>
<path id="Vector_6" d="M4.79248 10.0293C4.79248 10.2923 4.57936 10.5054 4.31641 10.5054C4.05345 10.5054 3.84033 10.2923 3.84033 10.0293C3.84033 9.76634 4.05345 9.55322 4.31641 9.55322C4.57936 9.55322 4.79248 9.76634 4.79248 10.0293Z" fill="var(--fill-0, white)"/>
<path id="Vector_7" d="M4.79248 13.8379C4.79248 14.1008 4.57936 14.314 4.31641 14.314C4.05345 14.314 3.84033 14.1008 3.84033 13.8379C3.84033 13.5749 4.05345 13.3618 4.31641 13.3618C4.57936 13.3618 4.79248 13.5749 4.79248 13.8379Z" fill="var(--fill-0, white)"/>
</g>
<defs>
<clipPath id="clip0_10238_28721">
<rect width="16.25" height="16.25" fill="white"/>
</clipPath>
</defs>
</svg>
