<svg width="16" height="16" viewBox="0 0 16 16" fill="none" xmlns="http://www.w3.org/2000/svg">
  <path d="M4.97224 4.34234C5.00038 4.2499 5.13126 4.2499 5.1594 4.34234L6.05494 7.28462C6.06443 7.31581 6.08884 7.34022 6.12003 7.34972L9.06231 8.24525C9.15476 8.27339 9.15476 8.40427 9.06231 8.43241L6.12003 9.32794C6.08884 9.33744 6.06443 9.36185 6.05494 9.39304L5.1594 12.3353C5.13126 12.4278 5.00038 12.4278 4.97224 12.3353L4.07671 9.39304C4.06722 9.36185 4.0428 9.33744 4.01161 9.32794L1.06933 8.43241C0.976889 8.40427 0.976889 8.27339 1.06933 8.24525L4.01161 7.34972C4.0428 7.34022 4.06722 7.31581 4.07671 7.28462L4.97224 4.34234Z" fill="#7367F0"/>
  <path d="M6.10438 1.02773C6.11563 0.990755 6.16798 0.990755 6.17924 1.02773L6.52376 2.15965C6.52756 2.17213 6.53732 2.18189 6.5498 2.18569L7.68171 2.53021C7.71869 2.54146 7.71869 2.59382 7.68171 2.60507L6.5498 2.94959C6.53732 2.95339 6.52756 2.96315 6.52376 2.97563L6.17924 4.10754C6.16798 4.14452 6.11563 4.14452 6.10438 4.10754L5.75986 2.97563C5.75606 2.96315 5.7463 2.95339 5.73382 2.94959L4.6019 2.60507C4.56492 2.59382 4.56492 2.54146 4.6019 2.53021L5.73382 2.18569C5.7463 2.18189 5.75606 2.17213 5.75986 2.15965L6.10438 1.02773Z" fill="#7367F0"/>
  <path d="M10.1149 1.81027C10.1261 1.77329 10.1785 1.77329 10.1897 1.81027L10.7853 3.76709C10.7891 3.77957 10.7989 3.78933 10.8114 3.79313L12.7682 4.38873C12.8052 4.39998 12.8052 4.45233 12.7682 4.46359L10.8114 5.05918C10.7989 5.06298 10.7891 5.07275 10.7853 5.08522L10.1897 7.04205C10.1785 7.07903 10.1261 7.07903 10.1149 7.04205L9.51927 5.08522C9.51547 5.07275 9.50571 5.06298 9.49323 5.05918L7.53641 4.46359C7.49943 4.45233 7.49943 4.39998 7.53641 4.38873L9.49323 3.79313C9.50571 3.78933 9.51547 3.77957 9.51927 3.76709L10.1149 1.81027Z" fill="#7367F0"/>
  <path d="M12.2668 5.72294C12.2781 5.68596 12.3304 5.68596 12.3417 5.72294L12.6634 6.77987C12.6672 6.79234 12.677 6.80211 12.6894 6.8059L13.7464 7.1276C13.7833 7.13885 13.7833 7.19121 13.7464 7.20246L12.6894 7.52415C12.677 7.52795 12.6672 7.53772 12.6634 7.55019L12.3417 8.60712C12.3304 8.6441 12.2781 8.6441 12.2668 8.60712L11.9451 7.55019C11.9413 7.53772 11.9316 7.52795 11.9191 7.52415L10.8622 7.20246C10.8252 7.19121 10.8252 7.13885 10.8622 7.1276L11.9191 6.8059C11.9316 6.80211 11.9413 6.79234 11.9451 6.77987L12.2668 5.72294Z" fill="#7367F0"/>
  <path d="M10.017 8.85308C10.0283 8.8161 10.0807 8.8161 10.0919 8.85308L10.7103 10.8849C10.7141 10.8974 10.7239 10.9071 10.7364 10.9109L12.7682 11.5294C12.8052 11.5406 12.8052 11.593 12.7682 11.6042L10.7364 12.2226C10.7239 12.2264 10.7141 12.2362 10.7103 12.2487L10.0919 14.2805C10.0807 14.3175 10.0283 14.3175 10.017 14.2805L9.39863 12.2487C9.39483 12.2362 9.38507 12.2264 9.37259 12.2226L7.34077 11.6042C7.30379 11.593 7.30379 11.5406 7.34077 11.5294L9.37259 10.9109C9.38507 10.9071 9.39483 10.8974 9.39863 10.8849L10.017 8.85308Z" fill="#7367F0"/>
</svg>
