<svg preserveAspectRatio="none" width="100%" height="100%" overflow="visible" style="display: block;" viewBox="0 0 20 20" fill="none" xmlns="http://www.w3.org/2000/svg">
<g id="pie_chart">
<mask id="mask0_10030_57385" style="mask-type:alpha" maskUnits="userSpaceOnUse" x="0" y="0" width="20" height="20">
<rect id="Bounding box" width="20" height="20" fill="currentColor"/>
</mask>
<g mask="url(#mask0_10030_57385)">
<path id="pie_chart_2" d="M10.8333 9.16667H16.625C16.4167 7.63889 15.7812 6.34375 14.7187 5.28125C13.6563 4.21875 12.3611 3.58333 10.8333 3.375V9.16667ZM9.16667 16.625V3.375C7.48611 3.58333 6.09375 4.31597 4.98958 5.57292C3.88542 6.82986 3.33333 8.30556 3.33333 10C3.33333 11.6944 3.88542 13.1701 4.98958 14.4271C6.09375 15.684 7.48611 16.4167 9.16667 16.625ZM10.8333 16.625C12.3611 16.4306 13.6597 15.7986 14.7292 14.7292C15.7986 13.6597 16.4306 12.3611 16.625 10.8333H10.8333V16.625ZM10 18.3333C8.84722 18.3333 7.76389 18.1146 6.75 17.6771C5.73611 17.2396 4.85417 16.6458 4.10417 15.8958C3.35417 15.1458 2.76042 14.2639 2.32292 13.25C1.88542 12.2361 1.66667 11.1528 1.66667 10C1.66667 8.84722 1.88542 7.76389 2.32292 6.75C2.76042 5.73611 3.35417 4.85417 4.10417 4.10417C4.85417 3.35417 5.73611 2.76042 6.75 2.32292C7.76389 1.88542 8.84722 1.66667 10 1.66667C11.1528 1.66667 12.2326 1.88542 13.2396 2.32292C14.2465 2.76042 15.1285 3.35764 15.8854 4.11458C16.6424 4.87153 17.2396 5.75347 17.6771 6.76042C18.1146 7.76736 18.3333 8.84722 18.3333 10C18.3333 11.1389 18.1146 12.2153 17.6771 13.2292C17.2396 14.2431 16.6458 15.1285 15.8958 15.8854C15.1458 16.6424 14.2639 17.2396 13.25 17.6771C12.2361 18.1146 11.1528 18.3333 10 18.3333Z" fill="currentColor"/>
</g>
</g>
</svg>

